<svg width="16" height="16" viewBox="0 0 16 16" fill="none" xmlns="http://www.w3.org/2000/svg">
<path d="M13.848 6.76996L12.936 4.03396C12.8037 3.63561 12.5493 3.28909 12.2088 3.04363C11.8683 2.79817 11.4591 2.66625 11.0394 2.66663H4.96071C4.54097 2.66625 4.13178 2.79817 3.7913 3.04363C3.45081 3.28909 3.19634 3.63561 3.06404 4.03396L2.15204 6.76996C1.90952 6.87144 1.70241 7.04234 1.55675 7.26119C1.41109 7.48004 1.33337 7.73707 1.33337 7.99996V11.3333C1.33337 11.8253 1.60271 12.2506 2.00004 12.482V14C2.00004 14.1768 2.07028 14.3463 2.1953 14.4714C2.32033 14.5964 2.4899 14.6666 2.66671 14.6666H3.33337C3.51018 14.6666 3.67975 14.5964 3.80478 14.4714C3.9298 14.3463 4.00004 14.1768 4.00004 14V12.6666H12V14C12 14.1768 12.0703 14.3463 12.1953 14.4714C12.3203 14.5964 12.4899 14.6666 12.6667 14.6666H13.3334C13.5102 14.6666 13.6798 14.5964 13.8048 14.4714C13.9298 14.3463 14 14.1768 14 14V12.482C14.2023 12.366 14.3704 12.1987 14.4875 11.9971C14.6045 11.7954 14.6663 11.5665 14.6667 11.3333V7.99996C14.6667 7.73707 14.589 7.48004 14.4433 7.26119C14.2977 7.04234 14.0906 6.87144 13.848 6.76996ZM4.96071 3.99996H11.0387C11.326 3.99996 11.5807 4.18263 11.6714 4.45596L12.4087 6.66663H3.59137L4.32804 4.45596C4.37227 4.32316 4.45719 4.20764 4.57074 4.1258C4.68429 4.04395 4.82073 3.99993 4.96071 3.99996ZM3.66671 10.6666C3.53534 10.6666 3.40527 10.6407 3.28392 10.5904C3.16257 10.54 3.05232 10.4663 2.95946 10.3734C2.8666 10.2805 2.79296 10.1702 2.74273 10.0488C2.69249 9.92741 2.66666 9.79733 2.66671 9.66596C2.66675 9.53459 2.69267 9.40452 2.74298 9.28317C2.79329 9.16183 2.86701 9.05157 2.95993 8.95871C3.05285 8.86586 3.16315 8.79221 3.28454 8.74198C3.40592 8.69175 3.53601 8.66592 3.66737 8.66596C3.93268 8.66605 4.18708 8.77153 4.37462 8.95919C4.56216 9.14685 4.66746 9.40132 4.66737 9.66663C4.66729 9.93193 4.56181 10.1863 4.37415 10.3739C4.18649 10.5614 3.93201 10.6667 3.66671 10.6666ZM12.3334 10.6666C12.202 10.6666 12.0719 10.6407 11.9506 10.5904C11.8292 10.54 11.719 10.4663 11.6261 10.3734C11.5333 10.2805 11.4596 10.1702 11.4094 10.0488C11.3592 9.92741 11.3333 9.79733 11.3334 9.66596C11.3334 9.53459 11.3593 9.40452 11.4096 9.28317C11.46 9.16183 11.5337 9.05157 11.6266 8.95871C11.7195 8.86586 11.8298 8.79221 11.9512 8.74198C12.0726 8.69175 12.2027 8.66592 12.334 8.66596C12.5993 8.66605 12.8537 8.77153 13.0413 8.95919C13.2288 9.14685 13.3341 9.40132 13.334 9.66663C13.334 9.93193 13.2285 10.1863 13.0408 10.3739C12.8532 10.5614 12.5987 10.6667 12.3334 10.6666Z" fill="#292B2E"/>
</svg>
