<svg width="16" height="16" viewBox="0 0 16 16" fill="none" xmlns="http://www.w3.org/2000/svg">
<path d="M8.00002 1.66663C8.26524 1.66663 8.51959 1.77198 8.70713 1.95952C8.89466 2.14706 9.00002 2.40141 9.00002 2.66663V6.26796L12.1187 4.46663C12.3482 4.33611 12.6201 4.30169 12.875 4.37088C13.1298 4.44007 13.3469 4.60724 13.479 4.83593C13.611 5.06462 13.6472 5.33625 13.5797 5.59154C13.5122 5.84684 13.3465 6.06508 13.1187 6.19863L10 7.99996L13.1187 9.80063C13.3465 9.93418 13.5122 10.1524 13.5797 10.4077C13.6472 10.663 13.611 10.9346 13.479 11.1633C13.3469 11.392 13.1298 11.5592 12.875 11.6284C12.6201 11.6976 12.3482 11.6631 12.1187 11.5326L9.00002 9.73263V13.3333C9.00002 13.5985 8.89466 13.8529 8.70713 14.0404C8.51959 14.2279 8.26524 14.3333 8.00002 14.3333C7.7348 14.3333 7.48045 14.2279 7.29291 14.0404C7.10538 13.8529 7.00002 13.5985 7.00002 13.3333V9.73196L3.88135 11.5333C3.76758 11.6 3.64174 11.6435 3.51108 11.6614C3.38042 11.6793 3.24751 11.6711 3.12001 11.6374C2.99251 11.6037 2.87294 11.5451 2.76818 11.465C2.66341 11.3849 2.57553 11.2848 2.50959 11.1706C2.44365 11.0564 2.40095 10.9303 2.38395 10.7995C2.36695 10.6687 2.37599 10.5359 2.41054 10.4086C2.4451 10.2813 2.50449 10.1621 2.58529 10.0579C2.66609 9.95369 2.76671 9.86648 2.88135 9.80129L6.00002 7.99996L2.88135 6.19929C2.65355 6.06574 2.48781 5.84751 2.42032 5.59221C2.35282 5.33692 2.38904 5.06529 2.52108 4.8366C2.65312 4.60791 2.87025 4.44073 3.12509 4.37154C3.37993 4.30236 3.6518 4.33678 3.88135 4.46729L7.00002 6.26729V2.66663C7.00002 2.40141 7.10538 2.14706 7.29291 1.95952C7.48045 1.77198 7.7348 1.66663 8.00002 1.66663Z" fill="#292B2E"/>
</svg>
