<svg width="16" height="16" viewBox="0 0 16 16" fill="none" xmlns="http://www.w3.org/2000/svg">
<g clip-path="url(#clip0_482_1668)">
<path d="M9.33337 7.00004V5.33337M6.66671 7.00004V5.33337M8.00004 14.6667C11.682 14.6667 14.6667 11.682 14.6667 8.00004C14.6667 4.31804 11.682 1.33337 8.00004 1.33337C4.31804 1.33337 1.33337 4.31804 1.33337 8.00004C1.33337 11.682 4.31804 14.6667 8.00004 14.6667Z" stroke="#292B2E" stroke-width="1.5" stroke-linecap="round" stroke-linejoin="round"/>
<path d="M8.00004 10.6667C8.70728 10.6667 9.38556 10.3857 9.88566 9.88562C10.3858 9.38552 10.6667 8.70724 10.6667 8V7H5.33337V8C5.33337 8.70724 5.61433 9.38552 6.11442 9.88562C6.61452 10.3857 7.2928 10.6667 8.00004 10.6667Z" fill="#292B2E" stroke="#292B2E" stroke-width="1.5" stroke-linecap="round" stroke-linejoin="round"/>
<path d="M8 14.6667V10.6667" stroke="#292B2E" stroke-width="1.5" stroke-linecap="round" stroke-linejoin="round"/>
</g>
<defs>
<clipPath id="clip0_482_1668">
<rect width="16" height="16" fill="white"/>
</clipPath>
</defs>
</svg>
