<svg width="16" height="16" viewBox="0 0 16 16" fill="none" xmlns="http://www.w3.org/2000/svg">
<path d="M3.53796 1.33337C3.42762 1.3332 3.32089 1.3727 3.23725 1.44466C3.1536 1.51662 3.0986 1.61625 3.08229 1.72537C3.03563 2.04137 2.66663 4.55537 2.66663 5.66671C2.66663 6.39871 2.98196 7.05804 3.48263 7.51471C3.71429 7.72571 3.83329 7.93904 3.83329 8.12871C3.83329 8.14371 3.83296 8.15604 3.83163 8.16937C3.80029 8.56071 3.49996 12.3254 3.49996 13C3.49996 13.4421 3.67555 13.866 3.98811 14.1786C4.30068 14.4911 4.7246 14.6667 5.16663 14.6667C5.60865 14.6667 6.03258 14.4911 6.34514 14.1786C6.6577 13.866 6.83329 13.4421 6.83329 13C6.83329 12.3254 6.53296 8.56071 6.50163 8.16937L6.49996 8.12871C6.49996 7.93904 6.61896 7.72571 6.85063 7.51471C7.10805 7.28066 7.31363 6.99532 7.45417 6.67705C7.5947 6.35878 7.66707 6.01462 7.66663 5.66671C7.66663 4.55537 7.29763 2.04004 7.25096 1.72537C7.23466 1.6163 7.17971 1.51672 7.09613 1.44477C7.01256 1.37281 6.90591 1.33328 6.79563 1.33337H6.78963C6.52429 1.33337 6.33396 1.55171 6.33396 1.79004V5.29337C6.33396 5.3424 6.3243 5.39095 6.30554 5.43624C6.28678 5.48154 6.25928 5.52269 6.22461 5.55736C6.18995 5.59203 6.14879 5.61953 6.10349 5.63829C6.0582 5.65705 6.00965 5.66671 5.96063 5.66671C5.9116 5.66671 5.86305 5.65705 5.81776 5.63829C5.77246 5.61953 5.73131 5.59203 5.69664 5.55736C5.66197 5.52269 5.63447 5.48154 5.61571 5.43624C5.59695 5.39095 5.58729 5.3424 5.58729 5.29337V1.77304C5.58914 1.71592 5.57934 1.65903 5.55848 1.60582C5.53763 1.55261 5.50616 1.50421 5.466 1.46355C5.42583 1.4229 5.37781 1.39085 5.32486 1.36936C5.27191 1.34786 5.21514 1.33737 5.158 1.33853C5.10086 1.33968 5.04456 1.35246 4.99252 1.37608C4.94048 1.39969 4.8938 1.43366 4.85531 1.4759C4.81682 1.51815 4.78734 1.56778 4.76865 1.62179C4.74997 1.6758 4.74247 1.73304 4.74663 1.79004V5.29337C4.74663 5.39239 4.70729 5.48735 4.63728 5.55736C4.56727 5.62737 4.47231 5.66671 4.37329 5.66671C4.27428 5.66671 4.17932 5.62737 4.10931 5.55736C4.03929 5.48735 3.99996 5.39239 3.99996 5.29337V1.79004C3.99996 1.6691 3.95198 1.5531 3.86656 1.46748C3.78113 1.38187 3.66523 1.33364 3.54429 1.33337H3.53796ZM10.3033 8.00004L10.2823 8.30404C10.251 8.75804 10.209 9.37071 10.1676 10.0054C10.085 11.2634 9.99996 12.637 9.99996 13C9.99996 13.4421 10.1756 13.866 10.4881 14.1786C10.8007 14.4911 11.2246 14.6667 11.6666 14.6667C12.1087 14.6667 12.5326 14.4911 12.8451 14.1786C13.1577 13.866 13.3333 13.4421 13.3333 13C13.3333 12.597 13.2283 11.0687 13.1373 9.74937L13.1343 9.70604C13.0616 8.64871 13 7.74671 13 7.58337V1.75004C13 1.52004 12.8133 1.33337 12.5833 1.33337H12.4166C10.3456 1.33337 8.66663 3.01237 8.66663 5.08337V6.91671C8.66663 7.20403 8.78076 7.47958 8.98393 7.68274C9.18709 7.8859 9.46264 8.00004 9.74996 8.00004H10.3033Z" fill="#292B2E"/>
</svg>
