<svg width="15" height="15" viewBox="0 0 15 15" fill="none" xmlns="http://www.w3.org/2000/svg">
<path d="M7.50006 1.5625C7.7487 1.5625 7.98716 1.66127 8.16297 1.83709C8.33879 2.0129 8.43756 2.25136 8.43756 2.5V5.87625L11.3613 4.1875C11.5765 4.06514 11.8314 4.03287 12.0703 4.09774C12.3092 4.1626 12.5128 4.31933 12.6366 4.53372C12.7604 4.74812 12.7943 5.00277 12.731 5.24211C12.6678 5.48145 12.5124 5.68605 12.2988 5.81125L9.37506 7.5L12.2988 9.18813C12.5124 9.31333 12.6678 9.51792 12.731 9.75726C12.7943 9.9966 12.7604 10.2513 12.6366 10.4657C12.5128 10.68 12.3092 10.8368 12.0703 10.9016C11.8314 10.9665 11.5765 10.9342 11.3613 10.8119L8.43756 9.12437V12.5C8.43756 12.7486 8.33879 12.9871 8.16297 13.1629C7.98716 13.3387 7.7487 13.4375 7.50006 13.4375C7.25142 13.4375 7.01296 13.3387 6.83715 13.1629C6.66133 12.9871 6.56256 12.7486 6.56256 12.5V9.12375L3.63881 10.8125C3.53215 10.875 3.41417 10.9158 3.29168 10.9326C3.16918 10.9493 3.04458 10.9417 2.92505 10.9101C2.80552 10.8785 2.69342 10.8236 2.5952 10.7485C2.49699 10.6734 2.4146 10.5796 2.35278 10.4725C2.29096 10.3654 2.25093 10.2472 2.23499 10.1246C2.21906 10.002 2.22753 9.87742 2.25992 9.7581C2.29232 9.63878 2.34799 9.52705 2.42375 9.42934C2.4995 9.33162 2.59383 9.24986 2.70131 9.18875L5.62506 7.5L2.70131 5.81187C2.48774 5.68667 2.33236 5.48208 2.26909 5.24274C2.20581 5.0034 2.23977 4.74874 2.36355 4.53435C2.48734 4.31995 2.6909 4.16322 2.92981 4.09836C3.16873 4.0335 3.4236 4.06577 3.63881 4.18813L6.56256 5.87563V2.5C6.56256 2.25136 6.66133 2.0129 6.83715 1.83709C7.01296 1.66127 7.25142 1.5625 7.50006 1.5625Z" fill="white"/>
</svg>
