<svg width="18" height="18" viewBox="0 0 18 18" fill="none" xmlns="http://www.w3.org/2000/svg">
<g clip-path="url(#clip0_326_2194)">
<path fill-rule="evenodd" clip-rule="evenodd" d="M1.96052 4.0695C2.04568 3.86391 2.18989 3.68819 2.37492 3.56457C2.55995 3.44094 2.77749 3.37497 3.00002 3.375H10.5C11.9919 3.375 13.4226 3.96763 14.4775 5.02252C15.5324 6.07742 16.125 7.50816 16.125 9C16.125 10.4918 15.5324 11.9226 14.4775 12.9775C13.4226 14.0324 11.9919 14.625 10.5 14.625H3.75002C3.45165 14.625 3.1655 14.5065 2.95453 14.2955C2.74355 14.0845 2.62502 13.7984 2.62502 13.5C2.62502 13.2016 2.74355 12.9155 2.95453 12.7045C3.1655 12.4935 3.45165 12.375 3.75002 12.375H10.5C11.3951 12.375 12.2536 12.0194 12.8865 11.3865C13.5194 10.7536 13.875 9.89511 13.875 9C13.875 8.10489 13.5194 7.24645 12.8865 6.61351C12.2536 5.98058 11.3951 5.625 10.5 5.625H5.71577L6.42077 6.33C6.6256 6.54227 6.73886 6.82651 6.73616 7.12148C6.73346 7.41645 6.61501 7.69856 6.40633 7.90704C6.19764 8.11553 5.91542 8.23371 5.62045 8.23614C5.32548 8.23856 5.04135 8.12503 4.82927 7.92L2.20427 5.295C2.04706 5.1377 1.94 4.93732 1.89661 4.7192C1.85323 4.50108 1.87547 4.27499 1.96052 4.0695Z" fill="white"/>
</g>
<defs>
<clipPath id="clip0_326_2194">
<rect width="18" height="18" fill="white"/>
</clipPath>
</defs>
</svg>
