<svg width="24" height="24" viewBox="0 0 24 24" fill="none" xmlns="http://www.w3.org/2000/svg">
<path d="M4.26308 19.7637C5.52617 21.1667 7.55975 21.1667 11.625 21.1667C15.6902 21.1667 17.7238 21.1667 18.9869 19.7627C20.25 18.3607 20.25 16.1009 20.25 11.5833C20.25 7.06575 20.25 4.80696 18.9869 3.403C17.7238 1.99904 15.6902 2 11.625 2C7.55975 2 5.52617 2 4.26308 3.403C3 4.80792 3 7.06575 3 11.5833C3 16.1009 3 18.3607 4.26308 19.7637Z" stroke="white" stroke-width="1.5"/>
<path d="M6.83334 7.74992C6.83334 7.30429 6.83334 7.08196 6.88222 6.89892C6.94757 6.65538 7.07583 6.43331 7.25414 6.255C7.43244 6.0767 7.65451 5.94844 7.89805 5.88309C8.08301 5.83325 8.30534 5.83325 8.75001 5.83325H14.5C14.9456 5.83325 15.168 5.83325 15.351 5.88213C15.5946 5.94748 15.8166 6.07574 15.9949 6.25405C16.1732 6.43235 16.3015 6.65442 16.3668 6.89796C16.4167 7.08292 16.4167 7.30525 16.4167 7.74992C16.4167 8.19459 16.4167 8.41788 16.3678 8.60092C16.3025 8.84446 16.1742 9.06653 15.9959 9.24483C15.8176 9.42314 15.5955 9.5514 15.352 9.61675C15.168 9.66659 14.9447 9.66659 14.5 9.66659H8.75001C8.30439 9.66659 8.08205 9.66659 7.89901 9.61771C7.65547 9.55236 7.4334 9.42409 7.2551 9.24579C7.07679 9.06749 6.94853 8.84542 6.88318 8.60188C6.83334 8.41692 6.83334 8.19459 6.83334 7.74992Z" stroke="white" stroke-width="1.5"/>
<path d="M7.79168 13.4999C8.32095 13.4999 8.75001 13.0709 8.75001 12.5416C8.75001 12.0123 8.32095 11.5833 7.79168 11.5833C7.2624 11.5833 6.83334 12.0123 6.83334 12.5416C6.83334 13.0709 7.2624 13.4999 7.79168 13.4999Z" fill="white"/>
<path d="M7.79168 17.3334C8.32095 17.3334 8.75001 16.9044 8.75001 16.3751C8.75001 15.8458 8.32095 15.4167 7.79168 15.4167C7.2624 15.4167 6.83334 15.8458 6.83334 16.3751C6.83334 16.9044 7.2624 17.3334 7.79168 17.3334Z" fill="white"/>
<path d="M11.625 13.4999C12.1543 13.4999 12.5833 13.0709 12.5833 12.5416C12.5833 12.0123 12.1543 11.5833 11.625 11.5833C11.0957 11.5833 10.6667 12.0123 10.6667 12.5416C10.6667 13.0709 11.0957 13.4999 11.625 13.4999Z" fill="white"/>
<path d="M11.625 17.3334C12.1543 17.3334 12.5833 16.9044 12.5833 16.3751C12.5833 15.8458 12.1543 15.4167 11.625 15.4167C11.0957 15.4167 10.6667 15.8458 10.6667 16.3751C10.6667 16.9044 11.0957 17.3334 11.625 17.3334Z" fill="white"/>
<path d="M15.4583 13.4999C15.9876 13.4999 16.4167 13.0709 16.4167 12.5416C16.4167 12.0123 15.9876 11.5833 15.4583 11.5833C14.9291 11.5833 14.5 12.0123 14.5 12.5416C14.5 13.0709 14.9291 13.4999 15.4583 13.4999Z" fill="white"/>
<path d="M15.4583 17.3334C15.9876 17.3334 16.4167 16.9044 16.4167 16.3751C16.4167 15.8458 15.9876 15.4167 15.4583 15.4167C14.9291 15.4167 14.5 15.8458 14.5 16.3751C14.5 16.9044 14.9291 17.3334 15.4583 17.3334Z" fill="white"/>
</svg>
