<svg width="18" height="18" viewBox="0 0 18 18" fill="none" xmlns="http://www.w3.org/2000/svg">
<path d="M9 12C10.2426 12 11.25 10.9926 11.25 9.75C11.25 8.50736 10.2426 7.5 9 7.5C7.75736 7.5 6.75 8.50736 6.75 9.75C6.75 10.9926 7.75736 12 9 12Z" stroke="#292B2E" stroke-width="1.5"/>
<path d="M7.3335 15.75H10.6665C13.0073 15.75 14.178 15.75 15.0187 15.1988C15.3816 14.9611 15.6941 14.6543 15.9382 14.2958C16.5 13.4708 16.5 12.321 16.5 10.023C16.5 7.725 16.5 6.57525 15.9382 5.75025C15.6941 5.39175 15.3816 5.0849 15.0187 4.84725C14.4787 4.4925 13.8022 4.36575 12.7665 4.32075C12.2722 4.32075 11.847 3.95325 11.7502 3.477C11.6763 3.12816 11.4842 2.81553 11.2064 2.59197C10.9286 2.3684 10.5821 2.24761 10.2255 2.25H7.7745C7.0335 2.25 6.39525 2.76375 6.24975 3.477C6.153 3.95325 5.72775 4.32075 5.2335 4.32075C4.1985 4.36575 3.522 4.49325 2.98125 4.84725C2.61865 5.08498 2.30646 5.39182 2.0625 5.75025C1.5 6.57525 1.5 7.72425 1.5 10.023C1.5 12.3218 1.5 13.47 2.06175 14.2958C2.30475 14.6528 2.61675 14.9595 2.98125 15.1988C3.822 15.75 4.99275 15.75 7.3335 15.75Z" stroke="#292B2E" stroke-width="1.5"/>
<path d="M14.25 7.5H13.5" stroke="#292B2E" stroke-width="1.5" stroke-linecap="round"/>
</svg>
