<svg width="18" height="18" viewBox="0 0 18 18" fill="none" xmlns="http://www.w3.org/2000/svg">
<path fill-rule="evenodd" clip-rule="evenodd" d="M16.1595 3.83325C16.3704 4.04422 16.4889 4.33032 16.4889 4.62863C16.4889 4.92693 16.3704 5.21303 16.1595 5.424L7.72727 13.8563C7.61584 13.9677 7.48354 14.0561 7.33793 14.1164C7.19232 14.1768 7.03625 14.2078 6.87864 14.2078C6.72104 14.2078 6.56497 14.1768 6.41936 14.1164C6.27375 14.0561 6.14145 13.9677 6.03002 13.8563L1.84052 9.6675C1.73307 9.56372 1.64737 9.43958 1.58841 9.30233C1.52945 9.16508 1.49841 9.01745 1.49711 8.86808C1.49581 8.7187 1.52428 8.57056 1.58085 8.4323C1.63741 8.29404 1.72095 8.16843 1.82658 8.06281C1.9322 7.95718 2.05781 7.87364 2.19607 7.81708C2.33433 7.76051 2.48247 7.73205 2.63185 7.73334C2.78122 7.73464 2.92885 7.76568 3.0661 7.82464C3.20335 7.8836 3.32749 7.9693 3.43127 8.07675L6.87827 11.5238L14.568 3.83325C14.6725 3.72871 14.7965 3.64578 14.9331 3.58919C15.0696 3.53261 15.216 3.50349 15.3638 3.50349C15.5116 3.50349 15.6579 3.53261 15.7945 3.58919C15.931 3.64578 16.055 3.72871 16.1595 3.83325Z" fill="white"/>
</svg>
