<svg width="20" height="20" viewBox="0 0 20 20" fill="none" xmlns="http://www.w3.org/2000/svg">
<path d="M9.99996 1.66663C5.39996 1.66663 1.66663 5.39996 1.66663 9.99996C1.66663 14.6 5.39996 18.3333 9.99996 18.3333C14.6 18.3333 18.3333 14.6 18.3333 9.99996C18.3333 5.39996 14.6 1.66663 9.99996 1.66663ZM7.74163 13.575L4.74996 10.5833C4.67281 10.5061 4.61161 10.4145 4.56985 10.3137C4.5281 10.2129 4.50661 10.1049 4.50661 9.99579C4.50661 9.88668 4.5281 9.77864 4.56985 9.67784C4.61161 9.57704 4.67281 9.48544 4.74996 9.40829C4.82711 9.33114 4.9187 9.26994 5.01951 9.22819C5.12031 9.18643 5.22835 9.16494 5.33746 9.16494C5.44657 9.16494 5.55461 9.18643 5.65541 9.22819C5.75622 9.26994 5.84781 9.33114 5.92496 9.40829L8.33329 11.8083L14.0666 6.07496C14.2224 5.91914 14.4338 5.83161 14.6541 5.83161C14.8745 5.83161 15.0858 5.91914 15.2416 6.07496C15.3974 6.23077 15.485 6.4421 15.485 6.66246C15.485 6.88281 15.3974 7.09414 15.2416 7.24996L8.91663 13.575C8.83953 13.6522 8.74796 13.7135 8.64715 13.7553C8.54633 13.7971 8.43827 13.8187 8.32913 13.8187C8.21999 13.8187 8.11192 13.7971 8.01111 13.7553C7.91029 13.7135 7.81872 13.6522 7.74163 13.575Z" fill="#40A578"/>
</svg>
