<svg width="30" height="31" viewBox="0 0 30 31" fill="none" xmlns="http://www.w3.org/2000/svg">
<path fill-rule="evenodd" clip-rule="evenodd" d="M2.5 15.5C2.5 8.59625 8.09625 3 15 3C21.9037 3 27.5 8.59625 27.5 15.5C27.5 22.4037 21.9037 28 15 28C8.09625 28 2.5 22.4037 2.5 15.5ZM15 5.5C12.3478 5.5 9.8043 6.55357 7.92893 8.42893C6.05357 10.3043 5 12.8478 5 15.5C5 18.1522 6.05357 20.6957 7.92893 22.5711C9.8043 24.4464 12.3478 25.5 15 25.5C17.6522 25.5 20.1957 24.4464 22.0711 22.5711C23.9464 20.6957 25 18.1522 25 15.5C25 12.8478 23.9464 10.3043 22.0711 8.42893C20.1957 6.55357 17.6522 5.5 15 5.5Z" fill="#949596"/>
<path fill-rule="evenodd" clip-rule="evenodd" d="M16.25 9.25C16.25 8.91848 16.1183 8.60054 15.8839 8.36612C15.6495 8.1317 15.3315 8 15 8C14.6685 8 14.3505 8.1317 14.1161 8.36612C13.8817 8.60054 13.75 8.91848 13.75 9.25V14.25H8.75C8.41848 14.25 8.10054 14.3817 7.86612 14.6161C7.6317 14.8505 7.5 15.1685 7.5 15.5C7.5 15.8315 7.6317 16.1495 7.86612 16.3839C8.10054 16.6183 8.41848 16.75 8.75 16.75H13.75V21.75C13.75 22.0815 13.8817 22.3995 14.1161 22.6339C14.3505 22.8683 14.6685 23 15 23C15.3315 23 15.6495 22.8683 15.8839 22.6339C16.1183 22.3995 16.25 22.0815 16.25 21.75V16.75H21.25C21.5815 16.75 21.8995 16.6183 22.1339 16.3839C22.3683 16.1495 22.5 15.8315 22.5 15.5C22.5 15.1685 22.3683 14.8505 22.1339 14.6161C21.8995 14.3817 21.5815 14.25 21.25 14.25H16.25V9.25Z" fill="#949596"/>
</svg>
