<svg width="18" height="14" viewBox="0 0 18 14" fill="none" xmlns="http://www.w3.org/2000/svg">
<path d="M0.704575 1.96643L3.52543 3.48357L6.04543 3.049C6.46499 2.9764 6.89544 2.99816 7.30554 3.11269C7.71563 3.22722 8.09507 3.43166 8.41629 3.71114M14.5054 9.934L10.5171 12.7677C10.089 13.0719 9.57788 13.2377 9.05265 13.2427C8.52743 13.2478 8.01326 13.0919 7.57929 12.796L0.704575 8.10957" stroke="#292B2E" stroke-width="1.5" stroke-linecap="round" stroke-linejoin="round"/>
<path d="M17.2311 8.07997L14.409 10.0085L10.0299 6.47283L8.41886 7.64411C8.10354 7.87304 7.7117 7.97068 7.32584 7.91648C6.93997 7.86229 6.59019 7.66047 6.35014 7.35354C6.11138 7.04677 6.00064 6.65948 6.04115 6.27286C6.08166 5.88624 6.27027 5.53031 6.56743 5.27969L8.24529 3.86926C8.64298 3.53448 9.10425 3.28355 9.60138 3.13154C10.0985 2.97953 10.6212 2.92958 11.1381 2.98469L13.752 3.26497L17.2311 1.38397" stroke="#292B2E" stroke-width="1.5" stroke-linecap="round" stroke-linejoin="round"/>
<path d="M10.0299 6.48185C11.0841 7.42042 12.5781 6.94085 13.1336 6.17456" stroke="#292B2E" stroke-width="1.5" stroke-linecap="round" stroke-linejoin="round"/>
</svg>
