<svg width="18" height="18" viewBox="0 0 18 18" fill="none" xmlns="http://www.w3.org/2000/svg">
<g clip-path="url(#clip0_407_242)">
<path d="M1.5 9C1.5 5.4645 1.5 3.69675 2.598 2.598C3.6975 1.5 5.4645 1.5 9 1.5C12.5355 1.5 14.3032 1.5 15.4012 2.598C16.5 3.6975 16.5 5.4645 16.5 9C16.5 12.5355 16.5 14.3032 15.4012 15.4012C14.304 16.5 12.5355 16.5 9 16.5C5.4645 16.5 3.69675 16.5 2.598 15.4012C1.5 14.304 1.5 12.5355 1.5 9Z" stroke="#292B2E" stroke-width="1.5"/>
<path d="M12 7.5C12.8284 7.5 13.5 6.82843 13.5 6C13.5 5.17157 12.8284 4.5 12 4.5C11.1716 4.5 10.5 5.17157 10.5 6C10.5 6.82843 11.1716 7.5 12 7.5Z" stroke="#292B2E" stroke-width="1.5"/>
<path d="M1.5 9.37501L2.814 8.22526C3.14335 7.93732 3.56981 7.78526 4.00704 7.79988C4.44427 7.81451 4.85962 7.99471 5.169 8.30401L8.3865 11.5215C8.63618 11.7711 8.96591 11.9247 9.31766 11.9552C9.66941 11.9856 10.0206 11.891 10.3095 11.688L10.5338 11.5305C10.9504 11.2379 11.4541 11.0952 11.9624 11.1258C12.4706 11.1565 12.9535 11.3586 13.332 11.6993L15.75 13.875" stroke="#292B2E" stroke-width="1.5" stroke-linecap="round"/>
</g>
<defs>
<clipPath id="clip0_407_242">
<rect width="18" height="18" fill="white"/>
</clipPath>
</defs>
</svg>
