<svg width="24" height="24" viewBox="0 0 24 24" fill="none" xmlns="http://www.w3.org/2000/svg">
<path d="M12 15.375L15.375 12M15.375 12L12 8.625M15.375 12H3M8.625 6.65513V6.6C8.625 5.34 8.625 4.71 8.87025 4.2285C9.08625 3.80438 9.42938 3.46125 9.8535 3.24525C10.335 3 10.965 3 12.225 3H17.4C18.66 3 19.29 3 19.7704 3.24525C20.1945 3.46125 20.5387 3.80438 20.7547 4.2285C21 4.70887 21 5.33887 21 6.59663V17.4045C21 18.6623 21 19.2911 20.7547 19.7715C20.5387 20.195 20.1941 20.5392 19.7704 20.7547C19.29 21 18.6611 21 17.4034 21H12.2216C10.9639 21 10.3339 21 9.8535 20.7547C9.43015 20.539 9.08596 20.1948 8.87025 19.7715C8.625 19.29 8.625 18.66 8.625 17.4V17.3438" stroke="white" stroke-width="1.5" stroke-linecap="round" stroke-linejoin="round"/>
</svg>
