<svg width="14" height="18" viewBox="0 0 14 18" fill="none" xmlns="http://www.w3.org/2000/svg">
<path d="M2.5 14.25V7.5C2.5 6.30653 2.97411 5.16193 3.81802 4.31802C4.66193 3.47411 5.80653 3 7 3C8.19347 3 9.33807 3.47411 10.182 4.31802C11.0259 5.16193 11.5 6.30653 11.5 7.5V14.25M2.5 14.25H11.5M2.5 14.25H1M11.5 14.25H13M6.25 16.5H7.75" stroke="white" stroke-width="1.7" stroke-linecap="round" stroke-linejoin="round"/>
<path d="M7 3C7.41421 3 7.75 2.66421 7.75 2.25C7.75 1.83579 7.41421 1.5 7 1.5C6.58579 1.5 6.25 1.83579 6.25 2.25C6.25 2.66421 6.58579 3 7 3Z" stroke="white" stroke-width="1.7"/>
</svg>
