<svg width="24" height="24" viewBox="0 0 24 24" fill="none" xmlns="http://www.w3.org/2000/svg">
<g clip-path="url(#clip0_579_234)">
<path d="M2.63305 16.7904C2.48385 16.4308 2.29811 16.0733 2.24377 15.6854C1.52805 10.683 5.60933 6.62725 9.31365 5.08679C13.0179 3.54635 17.2831 5.99675 19.8117 3.36641C20.4434 2.65307 21.0864 1.97755 22.047 1.97253C22.4473 1.99239 22.7807 2.18055 22.9511 2.51251C26.1118 8.98627 21.596 16.6624 16.4965 19.3898C13.2603 20.9894 9.91155 21.3413 6.77701 20.2563C5.90537 20.0495 5.20671 19.1379 4.30319 19.1261C3.68011 19.4757 3.16261 20.6148 2.73979 21.242C2.24729 22.0968 1.26663 22.3228 0.561049 21.5748C-1.49693 19.5467 2.77991 17.7467 2.63305 16.7904ZM5.38317 15.9616C5.82515 16.3187 6.46273 16.2175 6.80217 15.8612C9.51599 12.573 13.1907 11.1305 17.1872 11.24C17.7761 11.2742 18.2042 10.7973 18.242 10.2856C18.2538 9.67801 17.7862 9.26709 17.2625 9.23079C12.4322 8.96229 8.24163 11.0921 5.28265 14.5301C4.90789 14.9981 4.97593 15.6208 5.38317 15.9616Z" fill="#40A578"/>
</g>
<defs>
<clipPath id="clip0_579_234">
<rect width="24" height="24" fill="white"/>
</clipPath>
</defs>
</svg>
