<svg width="16" height="12" viewBox="0 0 16 12" fill="none" xmlns="http://www.w3.org/2000/svg">
<path d="M0.666626 1.41667C0.666626 1.17355 0.763203 0.940394 0.935112 0.768486C1.10702 0.596577 1.34018 0.5 1.58329 0.5H2.49996C2.74307 0.5 2.97623 0.596577 3.14814 0.768486C3.32005 0.940394 3.41663 1.17355 3.41663 1.41667C3.41663 1.65978 3.32005 1.89294 3.14814 2.06485C2.97623 2.23676 2.74307 2.33333 2.49996 2.33333H1.58329C1.34018 2.33333 1.10702 2.23676 0.935112 2.06485C0.763203 1.89294 0.666626 1.65978 0.666626 1.41667ZM5.24996 1.41667C5.24996 1.17355 5.34654 0.940394 5.51844 0.768486C5.69035 0.596577 5.92351 0.5 6.16663 0.5H14.4166C14.6597 0.5 14.8929 0.596577 15.0648 0.768486C15.2367 0.940394 15.3333 1.17355 15.3333 1.41667C15.3333 1.65978 15.2367 1.89294 15.0648 2.06485C14.8929 2.23676 14.6597 2.33333 14.4166 2.33333H6.16663C5.92351 2.33333 5.69035 2.23676 5.51844 2.06485C5.34654 1.89294 5.24996 1.65978 5.24996 1.41667ZM0.666626 6C0.666626 5.75689 0.763203 5.52373 0.935112 5.35182C1.10702 5.17991 1.34018 5.08333 1.58329 5.08333H2.49996C2.74307 5.08333 2.97623 5.17991 3.14814 5.35182C3.32005 5.52373 3.41663 5.75689 3.41663 6C3.41663 6.24311 3.32005 6.47627 3.14814 6.64818C2.97623 6.82009 2.74307 6.91667 2.49996 6.91667H1.58329C1.34018 6.91667 1.10702 6.82009 0.935112 6.64818C0.763203 6.47627 0.666626 6.24311 0.666626 6ZM5.24996 6C5.24996 5.75689 5.34654 5.52373 5.51844 5.35182C5.69035 5.17991 5.92351 5.08333 6.16663 5.08333H14.4166C14.6597 5.08333 14.8929 5.17991 15.0648 5.35182C15.2367 5.52373 15.3333 5.75689 15.3333 6C15.3333 6.24311 15.2367 6.47627 15.0648 6.64818C14.8929 6.82009 14.6597 6.91667 14.4166 6.91667H6.16663C5.92351 6.91667 5.69035 6.82009 5.51844 6.64818C5.34654 6.47627 5.24996 6.24311 5.24996 6ZM0.666626 10.5833C0.666626 10.3402 0.763203 10.1071 0.935112 9.93515C1.10702 9.76324 1.34018 9.66667 1.58329 9.66667H2.49996C2.74307 9.66667 2.97623 9.76324 3.14814 9.93515C3.32005 10.1071 3.41663 10.3402 3.41663 10.5833C3.41663 10.8264 3.32005 11.0596 3.14814 11.2315C2.97623 11.4034 2.74307 11.5 2.49996 11.5H1.58329C1.34018 11.5 1.10702 11.4034 0.935112 11.2315C0.763203 11.0596 0.666626 10.8264 0.666626 10.5833ZM5.24996 10.5833C5.24996 10.3402 5.34654 10.1071 5.51844 9.93515C5.69035 9.76324 5.92351 9.66667 6.16663 9.66667H14.4166C14.6597 9.66667 14.8929 9.76324 15.0648 9.93515C15.2367 10.1071 15.3333 10.3402 15.3333 10.5833C15.3333 10.8264 15.2367 11.0596 15.0648 11.2315C14.8929 11.4034 14.6597 11.5 14.4166 11.5H6.16663C5.92351 11.5 5.69035 11.4034 5.51844 11.2315C5.34654 11.0596 5.24996 10.8264 5.24996 10.5833Z" fill="#292B2E"/>
</svg>
