<svg width="17" height="17" viewBox="0 0 17 17" fill="none" xmlns="http://www.w3.org/2000/svg">
<path d="M1.33337 8.58333C1.33337 6.70472 2.07965 4.90304 3.40803 3.57466C4.73642 2.24628 6.53809 1.5 8.41671 1.5C10.2953 1.5 12.097 2.24628 13.4254 3.57466C14.7538 4.90304 15.5 6.70472 15.5 8.58333V13.0901C15.5 13.8409 15.5 14.2146 15.3885 14.5147C15.2998 14.7526 15.161 14.9686 14.9815 15.1481C14.802 15.3276 14.586 15.4664 14.3481 15.5551C14.048 15.6667 13.6734 15.6667 12.9235 15.6667H8.41671C6.53809 15.6667 4.73642 14.9204 3.40803 13.592C2.07965 12.2636 1.33337 10.462 1.33337 8.58333Z" stroke="#292B2E" stroke-width="1.5"/>
<path d="M5.7605 7.69792H11.073M8.41675 11.2396H11.073" stroke="#292B2E" stroke-width="1.5" stroke-linecap="round" stroke-linejoin="round"/>
</svg>
