<svg width="18" height="18" viewBox="0 0 18 18" fill="none" xmlns="http://www.w3.org/2000/svg">
<path d="M1.5 9.153C1.5 7.43625 1.5 6.57825 1.89 5.86725C2.2785 5.1555 2.99025 4.7145 4.413 3.831L5.913 2.90025C7.41675 1.9665 8.169 1.5 9 1.5C9.831 1.5 10.5825 1.9665 12.087 2.90025L13.587 3.831C15.0097 4.7145 15.7215 5.1555 16.1107 5.86725C16.5 6.579 16.5 7.43625 16.5 9.15225V10.2937C16.5 13.2187 16.5 14.682 15.621 15.591C14.742 16.5 13.3282 16.5 10.5 16.5H7.5C4.67175 16.5 3.25725 16.5 2.379 15.591C1.50075 14.682 1.5 13.2195 1.5 10.2937V9.153Z" stroke="#292B2E" stroke-width="1.5"/>
<path d="M9 11.25V13.5" stroke="#292B2E" stroke-width="1.5" stroke-linecap="round"/>
</svg>
