<svg width="14" height="18" viewBox="0 0 14 18" fill="none" xmlns="http://www.w3.org/2000/svg">
<path d="M7.46661 16.35C7.3306 16.4477 7.16738 16.5002 6.99994 16.5002C6.8325 16.5002 6.66927 16.4477 6.53327 16.35C2.50911 13.4817 -1.76173 7.58167 2.55577 3.31833C3.74106 2.15237 5.3373 1.49927 6.99994 1.5C8.66661 1.5 10.2658 2.15417 11.4441 3.3175C15.7616 7.58083 11.4908 13.48 7.46661 16.35Z" stroke="#292B2E" stroke-width="1.4" stroke-linecap="round" stroke-linejoin="round"/>
<path d="M6.99992 9.00001C7.44195 9.00001 7.86587 8.82441 8.17843 8.51185C8.49099 8.19929 8.66659 7.77537 8.66659 7.33334C8.66659 6.89131 8.49099 6.46739 8.17843 6.15483C7.86587 5.84227 7.44195 5.66667 6.99992 5.66667C6.55789 5.66667 6.13397 5.84227 5.82141 6.15483C5.50885 6.46739 5.33325 6.89131 5.33325 7.33334C5.33325 7.77537 5.50885 8.19929 5.82141 8.51185C6.13397 8.82441 6.55789 9.00001 6.99992 9.00001Z" fill="#292B2E"/>
</svg>
