<svg width="14" height="16" viewBox="0 0 14 16" fill="none" xmlns="http://www.w3.org/2000/svg">
<path d="M12.7135 14.9375C12.7135 12.236 9.7015 10.04 7 10.04C4.2985 10.04 1.2865 12.236 1.2865 14.9375M7 7.592C7.86586 7.592 8.69627 7.24804 9.30853 6.63578C9.92078 6.02352 10.2647 5.19312 10.2647 4.32725C10.2647 3.46138 9.92078 2.63098 9.30853 2.01872C8.69627 1.40646 7.86586 1.0625 7 1.0625C6.13413 1.0625 5.30373 1.40646 4.69147 2.01872C4.07921 2.63098 3.73525 3.46138 3.73525 4.32725C3.73525 5.19312 4.07921 6.02352 4.69147 6.63578C5.30373 7.24804 6.13413 7.592 7 7.592Z" stroke="#292B2E" stroke-width="1.4" stroke-linecap="round" stroke-linejoin="round"/>
</svg>
